<svg width="302" height="106" viewBox="0 0 302 106" fill="none" xmlns="http://www.w3.org/2000/svg">
<path d="M49.0023 37.3009C46.161 37.3009 45.3396 38.561 45.3396 41.3405V45.9513H52.9183L52.1586 53.4004H45.3425V76.0069H36.2475V53.4004H30.1204V45.9513H36.2475V41.4671C36.2475 33.9532 39.2772 29.9842 47.7304 29.9842C49.5018 29.9801 51.2717 30.0853 53.0301 30.2993V37.3097L49.0023 37.3009Z" fill="#1877F2"/>
<path d="M53.5483 60.031C53.5483 51.6338 57.5261 45.3094 65.8615 45.3094C70.4075 45.3094 73.184 47.6472 74.5119 50.5503V45.9513H83.2242V76.0069H74.5119V71.4609C73.2488 74.3669 70.4075 76.64 65.8615 76.64C57.5261 76.64 53.5483 70.3244 53.5483 61.9183V60.031ZM62.6404 62.0538C62.6404 66.535 64.2804 69.5029 68.5114 69.5029C72.2389 69.5029 74.1321 66.7883 74.1321 62.4954V59.4775C74.1321 55.1847 72.2389 52.47 68.5114 52.47C64.2804 52.47 62.6404 55.4379 62.6404 59.9191V62.0538Z" fill="#1877F2"/>
<path d="M102.168 45.3182C105.701 45.3182 109.049 46.0779 110.88 47.338L108.86 53.7802C106.966 52.8781 104.896 52.4037 102.798 52.3905C97.8723 52.3905 95.7318 55.2318 95.7318 60.0958V61.8624C95.7318 66.7264 97.8782 69.5677 102.798 69.5677C104.896 69.5545 106.966 69.0801 108.86 68.178L110.88 74.6172C109.049 75.8803 105.704 76.64 102.168 76.64C91.4949 76.64 86.6338 70.8926 86.6338 61.674V60.2842C86.6338 51.0656 91.4949 45.3182 102.168 45.3182Z" fill="#1877F2"/>
<path d="M112.079 62.1274V59.4775C112.079 50.9537 116.94 45.3448 126.856 45.3448C136.201 45.3448 140.306 51.0273 140.306 59.3627V64.1619H121.168C121.359 68.2663 123.19 70.0977 128.234 70.0977C131.647 70.0977 135.245 69.4028 137.897 68.2663L139.561 74.4936C137.161 75.7596 132.235 76.7047 127.881 76.7047C116.371 76.7018 112.079 70.9604 112.079 62.1274ZM121.171 58.2114H132.159V57.4548C132.159 54.1718 130.834 51.5661 126.859 51.5661C122.752 51.5691 121.171 54.1601 121.171 58.1997V58.2114Z" fill="#1877F2"/>
<path d="M174.01 61.9272C174.01 70.3244 169.97 76.6488 161.643 76.6488C157.097 76.6488 153.941 74.3758 152.678 71.4697V76.0158H144.092V30.8587L153.184 30.0343V50.1146C154.509 47.4647 157.415 45.3153 161.646 45.3153C169.982 45.3153 174.012 51.6309 174.012 60.0369L174.01 61.9272ZM164.917 59.8426C164.917 55.6116 163.277 52.4553 158.92 52.4553C155.192 52.4553 153.173 55.1052 153.173 59.401V62.5573C153.173 66.8501 155.192 69.5029 158.92 69.5029C163.277 69.5029 164.917 66.3466 164.917 62.1156V59.8426Z" fill="#1877F2"/>
<path d="M177.051 61.7358V60.2224C177.051 51.569 181.977 45.3182 192.017 45.3182C202.057 45.3182 206.986 51.569 206.986 60.2224V61.7358C206.986 70.3862 202.06 76.64 192.02 76.64C181.98 76.64 177.051 70.3862 177.051 61.7358ZM197.891 59.5894C197.891 55.6116 196.248 52.4553 192.002 52.4553C187.757 52.4553 186.128 55.6116 186.128 59.5894V62.3688C186.128 66.3466 187.771 69.5029 192.002 69.5029C196.233 69.5029 197.891 66.3466 197.891 62.3688V59.5894Z" fill="#1877F2"/>
<path d="M210.01 61.7358V60.2224C210.01 51.569 214.936 45.3182 224.976 45.3182C235.016 45.3182 239.942 51.569 239.942 60.2224V61.7358C239.942 70.3862 235.016 76.64 224.976 76.64C214.936 76.64 210.01 70.3862 210.01 61.7358ZM230.85 59.5894C230.85 55.6116 229.207 52.4553 224.976 52.4553C220.745 52.4553 219.105 55.6116 219.105 59.5894V62.3688C219.105 66.3466 220.745 69.5029 224.976 69.5029C229.207 69.5029 230.85 66.3466 230.85 62.3688V59.5894Z" fill="#1877F2"/>
<path d="M252.443 60.2842L261.409 45.9513H271.069L261.662 60.7907L271.449 76.0069H261.789L252.443 61.2853V76.0069H243.348V30.8587L252.443 30.0343V60.2842Z" fill="#1877F2"/>
</svg>
